<?xml version="1.0" encoding="utf-8"?>
<svg xmlns="http://www.w3.org/2000/svg" id="research-services-diagram" viewBox="0 0 1000 600" width="1000" height="600">
  <style>
    :root {
      --color-layer1:      #2D6A4F;
      --color-layer1-dark: #1a4a33;
      --color-layer2:      #C18F59;
      --color-layer3:      #458484;
      --color-layer3-dark: #3B7271;
      --color-label-muted: #888888;
      --color-icon:        #ffffffff;

      /* Adaptive colours */
      --color-bg:           transparent;
      --color-title:        #1C1C1C;
      --color-column-header:#1C1C1C;
      --color-researcher:   rgb(180, 175, 168);
      --color-gear-face:    #F5F0E8;
      --color-stakeholder:  #C14030;
      --color-stakeholder-dark: #8B2D20;
      --color-node-figure:  #2D6A4F;
      --color-node-figure-dark: #1a4a33;
    }

    @media (prefers-color-scheme: dark) {
      :root {
        --color-title:        #E8E8E8;
        --color-column-header:#E8E8E8;
        --color-researcher:   rgb(200, 196, 190);
        --color-gear-face:    #2A2A2A;
      }
    }

    /* Layer fills */
    #layer1-shape { fill: var(--color-layer1); }
    #layer2-shape { fill: var(--color-layer2); }
    #layer3-shape { fill: var(--color-layer3); }

    /* Dashed connectors */
    .connector { stroke-width: 1.5; stroke-dasharray: 5,3; opacity: 0.65; fill: none; }
    #connector-layer1-left,  #connector-layer1-right  { stroke: var(--color-layer1); }
    #connector-layer2-left,  #connector-layer2-right  { stroke: var(--color-layer2); }
    #connector-layer3-left,  #connector-layer3-right  { stroke: var(--color-layer3); }

    /* --- Typography --- */

    #title {
      font-family: 'Segoe UI Semibold', 'Segoe UI', Arial, sans-serif;
      font-weight: 600;
      fill: #1C1C1C;
    }

    .column-header {
      font-family: 'Segoe UI Semibold', 'Segoe UI', Arial, sans-serif;
      font-weight: 600;
      font-size: 10px;
      fill: #1C1C1C;
      letter-spacing: 1.5px;
    }

    .layer-title {
      font-family: 'Segoe UI Semibold', 'Segoe UI', Arial, sans-serif;
      font-weight: 600;
      fill: #ffffff;
    }

    .layer-subtitle {
      font-family: 'Segoe UI', Arial, sans-serif;
      font-weight: 400;
      fill: #ffffff;
      opacity: 0.85;
    }

    .icon-label {
      font-family: 'Segoe UI Semibold', 'Segoe UI', Arial, sans-serif;
      font-weight: 600;
      font-size: 10px;
    }
    .icon-label-layer1 { fill: var(--color-layer1); }
    .icon-label-layer2 { fill: var(--color-layer2); }
    .icon-label-layer3 { fill: var(--color-layer3); }

    .icon-sublabel {
      font-family: 'Segoe UI', Arial, sans-serif;
      font-weight: 400;
      font-size: 9px;
    }
    .icon-sublabel-layer1 { fill: var(--color-layer1); }
    .icon-sublabel-layer2 { fill: var(--color-layer2); }
    .icon-sublabel-layer3 { fill: var(--color-layer3); }

    /* Cluster node rings */
    .node-circle { fill-opacity: 0.15; stroke-width: 1.5; }
    #node-a-circle, #node-b-circle, #node-c-circle {
      fill: var(--color-layer2);
      stroke: var(--color-layer2);
    }
    .node-connector { stroke: var(--color-layer2); stroke-width: 1.5; opacity: 0.7; }

    /* Adaptive element classes */
    .researcher-shape { fill: var(--color-researcher); }
    .researcher-label { fill: var(--color-researcher); text-anchor: middle; }
    .gear-face        { fill: var(--color-gear-face); }

    /* Panel icons — uniform off-white stroke/fill */
    #icon-rdm *,
    #icon-software *,
    #icon-open-science *,
    #icon-model *,
    #icon-pipeline *,
    #icon-barchart *,
    #icon-map *,
    #figure-farmer * {
      stroke: #ffffffff !important;
      fill: none !important;
    }

    /* Collab icon is a filled silhouette — white fill, no stroke */
    #icon-model *,
    #icon-open-science * {
      fill: #ffffffff !important;
      stroke: none !important;
    }

    /* Restore solid fill for the tractor wheel hub dot */
    #figure-farmer-hub {
      fill: #ffffffff !important;
    }

    /* Icon labels — override inline fill styles */
    #label-rdm,
    #label-software,
    #label-open-science,
    #label-model,
    #label-gear,
    #label-barchart,
    #label-map,
    #left-layer3-stakeholders .icon-label {
      fill: #ffffffff !important;
    }
  </style>
  <g id="background">
    <rect id="bg-main" width="1000" height="600" fill="none"/>
    <rect id="bg-header-stripe" x="0" y="0" width="1000" height="56" fill="none"/>
  </g>
  <g id="header">
    <text id="title" x="493" y="36" text-anchor="middle" font-size="21" letter-spacing="0.4" style="white-space: pre; font-size: 21px;">
      Data and Modelling Infrastructure for Living Labs
    </text>
    <text id="col-header-left" x="305" y="57" text-anchor="middle" class="column-header" style="white-space: pre; font-size: 10px;">WHO WE SERVE</text>
    <text id="col-header-right" x="690" y="57" text-anchor="middle" class="column-header" style="white-space: pre; font-size: 10px;">WHAT WE PROVIDE</text>
  </g>
  <g id="funnel">
    <polygon id="layer1-shape" points="243,65 755,65 705,226 293,226" fill="#2D6A4F"/>
    <polygon id="layer2-shape" points="293,230 705,230 655,391 343,391" fill="#C18F59"/>
    <polygon id="layer3-shape" points="343,395 655,395 605,556 393,556" fill="#458484"/>
  </g>
  <g id="funnel-labels">
    <g id="label-layer1" transform="matrix(1, 0, 0, 1, -2, -4)">
      <text x="500" y="95" text-anchor="middle" class="layer-title" font-size="16" style="white-space: pre;">Research Support</text>
      <text x="500" y="115" text-anchor="middle" class="layer-subtitle" font-size="11" style="white-space: pre;" transform="matrix(1, 0, 0, 1, 8.428446, 0.526778)">Empowering researchers to manage research data and software<tspan x="500" dy="1em">​</tspan>over the full scientific life cycle</text>
    </g>
    <g id="label-layer2" transform="matrix(1, 0, 0, 1, -1.980835, 0)">
      <text x="500" y="252" text-anchor="middle" class="layer-title" font-size="15" style="white-space: pre;">Research Integration</text>
      <text x="500" y="272" text-anchor="middle" class="layer-subtitle" font-size="11" style="white-space: pre;">Connecting data and methods across groups</text>
    </g>
    <g id="label-layer3" transform="matrix(1, 0, 0, 1, -2.140427, 35.764992)">
      <text x="500" y="384" text-anchor="middle" class="layer-title" font-size="14" style="white-space: pre;">Research Transfer</text>
      <text x="500" y="402" text-anchor="middle" class="layer-subtitle" font-size="10" style="white-space: pre;"> Closing the loop between science and practice </text>
    </g>
  </g>
  <g id="left-panel">
    <g id="left-layer1-researchers" transform="matrix(0.9252, 0, 0, 0.914498, 214.340439, 41.822376)" style="">
      <g id="researcher-left" transform="matrix(1, 0, 0, 1, 138, 146.813019)">
        <circle cx="0" cy="-20" r="8" class="researcher-shape" style="fill: rgb(241, 232, 232);"/>
        <rect x="-10" y="-10" width="20" height="24" rx="5" class="researcher-shape" style="fill: rgb(241, 232, 232);"/>
        <rect x="-7" y="4" width="14" height="8" rx="1" class="researcher-shape" style="fill: rgb(241, 232, 232);"/>
      </g>
      <g id="researcher-centre" transform="matrix(1, 0, 0, 1, 168, 135.813019)">
        <circle cx="0" cy="-20" r="8" class="researcher-shape" style="fill: rgb(241, 232, 232);"/>
        <rect x="-10" y="-10" width="20" height="24" rx="5" class="researcher-shape" style="fill: rgb(241, 232, 232);"/>
        <rect x="-7" y="4" width="14" height="8" rx="1" class="researcher-shape" style="fill: rgb(241, 232, 232);"/>
      </g>
      <g id="researcher-right" transform="matrix(1, 0, 0, 1, 198, 146.813019)">
        <circle cx="0" cy="-20" r="8" class="researcher-shape" style="fill: rgb(241, 232, 232);"/>
        <rect x="-10" y="-10" width="20" height="24" rx="5" class="researcher-shape" style="fill: rgb(241, 232, 232);"/>
        <rect x="-7" y="4" width="14" height="8" rx="1" class="researcher-shape" style="fill: rgb(241, 232, 232);"/>
      </g>
      <text class="icon-label researcher-label" style="fill: rgb(241, 232, 232); white-space: pre; font-size: 10px;" x="168" y="176.161">Research Groups</text>
    </g>
    <g id="left-layer2-clusters" transform="matrix(0.799872, 0, 0, 0.83218, 261.299591, 108.99736)" style="">
      <g id="node-a" transform="matrix(1, 0, 0, 1, 2.920543, 1.724738)">
        <circle id="node-a-circle" class="node-circle" cx="130" cy="283" r="22" style="fill: rgb(241, 232, 232);"/>
        <g id="node-a-figure" transform="matrix(0.65,0,0,0.65,130,283)">
          <circle cx="0" cy="-20" r="8" style="fill: rgb(241, 232, 232);"/>
          <rect x="-10" y="-10" width="20" height="24" rx="5" style="fill: rgb(241, 232, 232);"/>
          <rect x="-7" y="4" width="14" height="8" rx="1" style="fill: rgb(241, 232, 232);"/>
        </g>
      </g>
      <g id="node-b" transform="matrix(1, 0, 0, 1, -11.193337, -34.817844)">
        <circle id="node-b-circle" class="node-circle" cx="182" cy="268" r="22" style="fill: rgb(241, 232, 232);"/>
        <g id="node-b-figure" transform="matrix(0.65,0,0,0.65,182,268)">
          <circle cx="0" cy="-20" r="8" style="fill: rgb(241, 232, 232);"/>
          <rect x="-10" y="-10" width="20" height="24" rx="5" style="fill: rgb(241, 232, 232);"/>
          <rect x="-7" y="4" width="14" height="8" rx="1" style="fill: rgb(241, 232, 232);"/>
        </g>
      </g>
      <g id="node-c" transform="matrix(1, 0, 0, 1, -5.864828, -20.733335)">
        <circle id="node-c-circle" class="node-circle" cx="214" cy="303" r="22" style="fill: rgb(241, 232, 232);"/>
        <g id="node-c-figure" transform="matrix(0.65,0,0,0.65,214,303)">
          <circle cx="0" cy="-20" r="8" style="fill: rgb(241, 232, 232);"/>
          <rect x="-10" y="-10" width="20" height="24" rx="5" style="fill: rgb(241, 232, 232);"/>
          <rect x="-7" y="4" width="14" height="8" rx="1" style="fill: rgb(241, 232, 232);"/>
        </g>
      </g>
      <line id="node-link-ab" class="node-connector" x1="144.526" y1="266.53" x2="158.536" y2="251.489" style="fill: rgb(241, 232, 232); stroke: rgb(236, 239, 229); transform-origin: 157.462px 247.224px;"/>
      <line id="node-link-bc" class="node-connector" x1="186.269" y1="249.529" x2="197.796" y2="262.785" style="fill: rgb(241, 232, 232); stroke: rgb(236, 239, 229);"/>
      <line id="node-link-ac" class="node-connector" x1="154.759" y1="288.307" x2="185.471" y2="283.467" style="fill: rgb(241, 232, 232); stroke: rgb(236, 239, 229);"/>
      <text class="icon-label icon-label-layer2" style="fill: rgb(241, 232, 232); text-anchor: middle; white-space: pre;" x="172.959" y="324.279">Multiple Groups</text>
    </g>
    <g id="left-layer3-stakeholders" transform="matrix(1, 0, 0, 1, 262.585846, 65.835304)">
      <g id="figure-farmer" transform="matrix(0.188429, 0, 0, 0.191901, 126.30883, 413.180206)" style="">
        <circle cx="295.475" cy="67.383" r="28" fill="none" stroke="#ffffffff" stroke-linecap="round" stroke-linejoin="round" stroke-width="16" style="stroke-width: 12; stroke='#ffffffff';"/>
        <circle cx="151.475" cy="51.383" r="44" fill="none" stroke="#ffffffff" stroke-linecap="round" stroke-linejoin="round" stroke-width="16" style="stroke-width: 12;"/>
        <circle cx="151.475" cy="51.383" r="12" fill="#ffffffff" style="stroke-width: 1;"/>
        <path d="M 315.475 47.383 L 315.475 13.383 C 315.474 9.851 313.157 6.738 309.775 5.723 L 227.475 -16.617 L 227.475 -72.617 L 139.475 -72.617 L 139.475 -24.617" fill="none" stroke="#ffffffff" stroke-linecap="round" stroke-linejoin="round" stroke-width="16" style="stroke-width: 12;"/>
        <line x1="123.475" y1="-72.617" x2="139.475" y2="-72.617" fill="none" stroke="#ffffffff" stroke-linecap="round" stroke-linejoin="round" stroke-width="16" style="stroke-width: 12;"/>
        <line x1="227.475" y1="-72.617" x2="243.475" y2="-72.617" fill="none" stroke="#ffffffff" stroke-linecap="round" stroke-linejoin="round" stroke-width="16" style="stroke-width: 12;"/>
        <path d="M 123.475 -24.617 L 151.475 -24.617 C 193.449 -24.617 227.475 9.409 227.475 51.383 L 227.475 63.383 L 267.755 63.383" fill="none" stroke="#ffffffff" stroke-linecap="round" stroke-linejoin="round" stroke-width="16" style="stroke-width: 12;"/>
        <line x1="227.475" y1="-16.617" x2="227.475" y2="63.383" fill="none" stroke="#ffffffff" stroke-linecap="round" stroke-linejoin="round" stroke-width="16" style="stroke-width: 12;"/>
        <line x1="267.475" y1="-5.787" x2="267.475" y2="-48.617" fill="none" stroke="#ffffffff" stroke-linecap="round" stroke-linejoin="round" stroke-width="16" style="stroke-width: 12;"/>
      </g>
      <text class="icon-label icon-label-layer3" style="fill: #ffffffff; text-anchor: middle; white-space: pre; font-size: 10px;" x="165.993" y="454.328">Stakeholders</text>
    </g>
  </g>
  <g id="right-panel">
    <g id="right-layer1-icons" transform="matrix(1, 0, 0, 1, -35.055714, -8.835711)">
      <g id="icon-rdm" transform="matrix(0.182632, 0, 0, 0.1751, 510.261688, 158.782028)" style="">
        <ellipse cx="122.912" cy="20.019" rx="88" ry="48" fill="none" stroke="#ffffffff" stroke-linecap="round" stroke-linejoin="round" stroke-width="12" style="stroke-width: 12;"/>
        <path d="M 34.912 20.019 L 34.912 68.019 C 34.912 94.529 74.312 116.019 122.912 116.019 C 171.512 116.019 210.912 94.529 210.912 68.019 L 210.912 20.019" fill="none" stroke="#ffffffff" stroke-linecap="round" stroke-linejoin="round" stroke-width="12" style="stroke-width: 12;"/>
        <path d="M 34.912 68.019 L 34.912 116.019 C 34.912 142.529 74.312 164.019 122.912 164.019 C 171.512 164.019 210.912 142.529 210.912 116.019 L 210.912 68.019" fill="none" stroke="#ffffffff" stroke-linecap="round" stroke-linejoin="round" stroke-width="12" style="stroke-width: 12;"/>
      </g>
      <text id="label-rdm" class="icon-sublabel icon-sublabel-layer1" style="fill: rgb(237, 245, 242); white-space: pre; font-size: 9px; text-anchor: middle;" x="534.372" y="194.705" transform="matrix(1, 0, 0, 1, -2.107111, 8.783377)">Data<tspan x="534.3720092773438" dy="1em">​</tspan> Stewardship</text>
      <g id="icon-software" transform="matrix(0.251011, 0, 0, 0.239956, 342.668304, 54.526848)" style="">
        <polyline points="983.994 439.925 935.994 479.925 983.994 519.925" fill="none" stroke="#ffffffff" stroke-linecap="round" stroke-linejoin="round" stroke-width="12" style="stroke-width: 12;"/>
        <polyline points="1096.07 439.925 1144.07 479.925 1096.07 519.925" fill="none" stroke="#ffffffff" stroke-linecap="round" stroke-linejoin="round" stroke-width="12" style="stroke-width: 12;"/>
        <line x1="1072.03" y1="414.058" x2="1008.03" y2="557.203" fill="none" stroke="#ffffffff" stroke-linecap="round" stroke-linejoin="round" stroke-width="12" style="stroke-width: 12;"/>
      </g>
      <text id="label-software" class="icon-sublabel icon-sublabel-layer1" style="fill: rgb(237, 245, 242); text-anchor: middle; white-space: pre;" x="592.372" y="194.705" transform="matrix(1, 0, 0, 1, 10.336288, 8.783377)">Software <tspan x="592.3720092773438" dy="1em">​</tspan>Engineering</text>
      <g id="icon-open-science" transform="matrix(0.160214, 0, 0, 0.165864, 645.432387, 141.817294)" style="">
        <path d="M 213.196 179.872 C 212.35 178.093 211.348 176.385 210.208 174.749 L 210.208 145.145 C 210.231 136.782 206.486 128.763 199.809 122.87 C 193.165 116.937 184.131 113.612 174.716 113.637 L 174.705 113.637 C 165.289 113.612 156.25 116.932 149.611 122.86 C 142.929 128.753 139.184 136.782 139.212 145.145 L 139.212 149.453 L 153.429 149.453 L 153.429 145.145 C 153.429 140.102 155.641 135.359 159.664 131.788 C 163.646 128.232 169.062 126.244 174.71 126.259 C 186.454 126.268 195.97 134.715 195.991 145.145 L 195.991 162.373 C 189.53 158.955 182.145 157.163 174.627 157.178 C 163.519 157.163 152.87 161.077 145.031 168.06 C 137.165 175.019 132.75 184.472 132.767 194.334 C 132.75 204.191 137.16 213.645 145.026 220.608 C 152.859 227.596 163.514 231.521 174.627 231.511 C 185.73 231.521 196.378 227.607 204.223 220.628 C 212.09 213.664 216.498 204.206 216.487 194.349 C 216.487 189.335 215.381 184.468 213.196 179.881 L 213.196 179.872 Z M 174.627 218.88 C 159.386 218.88 146.984 207.869 146.984 194.339 C 146.984 180.81 159.386 169.799 174.627 169.799 C 189.867 169.799 202.27 180.805 202.27 194.339 C 202.27 207.874 189.867 218.88 174.627 218.88 Z M 186.493 194.453 C 186.493 202.466 176.718 207.476 168.902 203.468 C 165.273 201.607 163.038 198.17 163.038 194.453 C 163.038 186.438 172.807 181.428 180.629 185.436 C 184.258 187.293 186.493 190.729 186.493 194.453 Z" style="stroke: none; stroke-width: 12; fill-rule: nonzero; opacity: 1;" transform="matrix(0.9999999999999999, 0, 0, 1, 0, 0)"/>
        <path d="M 63.952 9.439 C 66.016 10.014 68.019 10.884 69.919 12.03 L 65.046 17.26 C 63.395 19.033 63.395 21.92 65.046 23.694 L 68.821 27.747 C 70.474 29.52 73.163 29.519 74.816 27.747 L 79.688 22.516 C 80.757 24.557 81.567 26.707 82.103 28.922 C 82.617 31.053 84.394 32.54 86.423 32.54 C 87.818 32.54 89.107 31.862 89.962 30.678 C 90.809 29.503 91.098 28.01 90.754 26.58 C 89.639 21.934 87.696 17.627 84.992 13.757 L 86.684 11.939 C 88.59 9.894 88.59 6.567 86.684 4.522 C 84.781 2.478 81.68 2.477 79.774 4.522 L 78.08 6.337 C 74.476 3.435 70.463 1.349 66.134 0.151 C 64.801 -0.218 63.41 0.093 62.318 1.003 C 61.215 1.92 60.581 3.305 60.581 4.801 C 60.581 6.98 61.967 8.887 63.952 9.439 Z M 80.821 5.643 C 81.484 4.931 82.357 4.575 83.23 4.575 C 84.103 4.575 84.974 4.931 85.638 5.643 C 86.967 7.069 86.967 9.389 85.638 10.815 L 84.086 12.481 L 83.41 13.208 C 82.082 14.633 79.919 14.633 78.592 13.208 C 77.263 11.782 77.263 9.462 78.592 8.037 L 80.821 5.643 Z M 63.224 2.259 C 63.954 1.652 64.881 1.447 65.766 1.69 C 69.856 2.821 73.657 4.774 77.074 7.499 C 77.06 7.52 77.051 7.543 77.037 7.564 C 76.885 7.789 76.751 8.025 76.637 8.268 C 76.621 8.303 76.607 8.338 76.592 8.374 C 76.479 8.629 76.382 8.889 76.311 9.156 C 76.307 9.173 76.303 9.19 76.299 9.207 C 76.229 9.479 76.179 9.755 76.151 10.034 C 76.149 10.052 76.145 10.068 76.144 10.085 C 76.118 10.361 76.116 10.639 76.131 10.916 C 76.132 10.954 76.132 10.99 76.136 11.027 C 76.155 11.294 76.195 11.56 76.252 11.822 C 76.263 11.865 76.271 11.908 76.282 11.951 C 76.344 12.21 76.426 12.465 76.527 12.714 C 76.542 12.753 76.56 12.791 76.577 12.83 C 76.685 13.081 76.81 13.325 76.957 13.559 C 76.973 13.584 76.992 13.608 77.009 13.634 C 77.167 13.877 77.345 14.112 77.547 14.329 C 77.75 14.548 77.969 14.737 78.197 14.909 C 78.219 14.927 78.241 14.946 78.263 14.962 C 78.482 15.121 78.711 15.255 78.946 15.372 C 78.982 15.39 79.016 15.409 79.053 15.425 C 79.284 15.533 79.521 15.62 79.762 15.687 C 79.803 15.698 79.844 15.709 79.886 15.719 C 80.128 15.78 80.374 15.823 80.622 15.843 C 80.659 15.846 80.697 15.846 80.733 15.848 C 80.823 15.854 80.913 15.862 81.002 15.862 C 81.167 15.862 81.332 15.852 81.497 15.834 C 81.518 15.831 81.538 15.827 81.559 15.824 C 81.813 15.794 82.064 15.741 82.312 15.668 C 82.331 15.663 82.35 15.659 82.369 15.653 C 82.617 15.576 82.857 15.474 83.093 15.354 C 83.126 15.337 83.161 15.322 83.195 15.303 C 83.423 15.18 83.641 15.036 83.852 14.873 C 83.87 14.859 83.891 14.85 83.91 14.835 C 86.45 18.504 88.269 22.584 89.322 26.973 C 89.55 27.924 89.357 28.918 88.792 29.701 C 88.22 30.495 87.356 30.95 86.423 30.95 C 85.068 30.95 83.88 29.951 83.535 28.521 C 82.886 25.836 81.856 23.243 80.474 20.812 L 79.985 19.95 L 73.77 26.622 C 72.696 27.776 70.946 27.777 69.869 26.622 L 66.094 22.571 C 65.019 21.416 65.019 19.538 66.094 18.383 L 72.309 11.711 L 71.506 11.186 C 69.242 9.702 66.827 8.598 64.325 7.901 C 62.993 7.531 62.062 6.255 62.062 4.801 C 62.061 3.799 62.485 2.872 63.224 2.259 Z" style="stroke: none; stroke-dasharray: none; stroke-linecap: butt; stroke-linejoin: miter; stroke-miterlimit: 10; fill: rgb(0, 0, 0); fill-rule: nonzero; opacity: 1; stroke-width: 14.8152px;" stroke-linecap="round" transform="matrix(3.3227250576019287, 0, 0, 3.3016560077667236, 3.4517570273453693, 41.5404481154642)"/>
        <path d="M 86.724 48.107 C 84.694 48.107 82.918 49.594 82.403 51.725 C 81.809 54.181 80.886 56.54 79.657 58.754 L 74.66 53.39 C 73.007 51.616 70.319 51.616 68.665 53.39 L 64.891 57.442 C 63.238 59.215 63.238 62.102 64.891 63.876 L 69.637 68.972 C 67.926 69.936 66.119 70.687 64.252 71.207 C 62.267 71.76 60.882 73.668 60.882 75.846 C 60.882 77.341 61.514 78.726 62.618 79.643 C 63.41 80.301 64.357 80.646 65.327 80.646 C 65.696 80.646 66.068 80.596 66.435 80.495 C 70.764 79.298 74.777 77.212 78.381 74.309 L 80.075 76.126 C 81.027 77.148 82.279 77.66 83.529 77.66 C 84.78 77.66 86.033 77.148 86.984 76.126 C 88.89 74.081 88.89 70.753 86.984 68.708 L 85.292 66.89 C 87.997 63.021 89.94 58.715 91.055 54.067 C 91.398 52.637 91.109 51.143 90.262 49.971 C 89.407 48.787 88.118 48.107 86.724 48.107 Z M 85.939 75.002 C 84.609 76.428 82.449 76.428 81.121 75.002 L 78.892 72.61 C 78.726 72.432 78.58 72.24 78.456 72.038 C 78.082 71.429 77.896 70.727 77.896 70.025 C 77.896 69.088 78.228 68.152 78.892 67.439 C 79.29 67.011 79.768 66.727 80.272 66.556 C 81.447 66.158 82.78 66.442 83.71 67.439 L 85.939 69.832 C 87.267 71.257 87.267 73.576 85.939 75.002 Z M 89.622 53.672 C 88.568 58.062 86.749 62.142 84.211 65.809 C 84.192 65.794 84.169 65.784 84.15 65.77 C 83.939 65.607 83.72 65.462 83.493 65.339 C 83.461 65.322 83.43 65.309 83.4 65.293 C 83.16 65.171 82.915 65.067 82.664 64.989 C 82.653 64.985 82.641 64.983 82.629 64.98 C 82.37 64.902 82.106 64.847 81.839 64.816 C 81.829 64.814 81.817 64.811 81.806 64.811 C 81.544 64.782 81.282 64.78 81.018 64.795 C 80.989 64.797 80.959 64.798 80.93 64.801 C 80.676 64.821 80.424 64.865 80.176 64.928 C 80.141 64.936 80.106 64.946 80.07 64.956 C 79.824 65.024 79.583 65.112 79.348 65.223 C 79.315 65.237 79.283 65.254 79.252 65.27 C 79.014 65.387 78.783 65.524 78.563 65.685 C 78.541 65.7 78.521 65.718 78.5 65.734 C 78.272 65.906 78.052 66.097 77.848 66.316 C 77.645 66.534 77.468 66.768 77.309 67.011 C 77.293 67.037 77.274 67.06 77.258 67.086 C 77.11 67.32 76.985 67.565 76.876 67.817 C 76.86 67.854 76.843 67.892 76.828 67.929 C 76.727 68.179 76.645 68.435 76.582 68.696 C 76.572 68.737 76.563 68.778 76.553 68.82 C 76.496 69.084 76.455 69.351 76.436 69.62 C 76.433 69.655 76.433 69.689 76.432 69.724 C 76.417 70.004 76.419 70.284 76.445 70.562 C 76.446 70.577 76.449 70.591 76.451 70.605 C 76.479 70.888 76.53 71.169 76.602 71.443 C 76.605 71.457 76.608 71.472 76.612 71.488 C 76.683 71.756 76.781 72.018 76.894 72.273 C 76.908 72.308 76.923 72.344 76.939 72.379 C 77.052 72.622 77.186 72.855 77.337 73.081 C 77.352 73.102 77.361 73.127 77.376 73.148 C 73.959 75.874 70.158 77.826 66.068 78.956 C 65.183 79.201 64.257 78.996 63.526 78.388 C 62.787 77.774 62.363 76.847 62.363 75.846 C 62.363 74.391 63.294 73.116 64.627 72.745 C 66.935 72.102 69.156 71.127 71.228 69.845 L 72.065 69.329 L 65.94 62.754 C 64.864 61.6 64.864 59.722 65.94 58.567 L 69.714 54.514 C 70.253 53.937 70.959 53.649 71.666 53.649 C 72.373 53.649 73.079 53.937 73.617 54.514 L 79.921 61.282 L 80.418 60.455 C 81.978 57.86 83.129 55.058 83.837 52.126 C 84.184 50.696 85.371 49.697 86.726 49.697 C 87.659 49.697 88.522 50.152 89.095 50.944 C 89.657 51.726 89.849 52.72 89.622 53.672 Z" style="stroke: none; stroke-width: 12; stroke-dasharray: none; stroke-linecap: butt; stroke-linejoin: miter; stroke-miterlimit: 10; fill: rgb(0, 0, 0); fill-rule: nonzero; opacity: 1;" stroke-linecap="round" transform="matrix(3.3227250576019287, 0, 0, 3.3016560077667236, 3.4517570273453693, 41.5404481154642)"/>
        <path d="M 37.852 71.206 C 35.985 70.686 34.178 69.935 32.467 68.97 L 37.214 63.876 C 38.866 62.102 38.866 59.215 37.214 57.441 L 33.44 53.389 C 31.787 51.615 29.098 51.615 27.444 53.389 L 22.448 58.753 C 21.219 56.54 20.296 54.179 19.703 51.724 C 19.188 49.594 17.412 48.106 15.382 48.106 C 13.988 48.106 12.698 48.785 11.843 49.97 C 10.997 51.143 10.708 52.636 11.051 54.066 C 12.166 58.715 14.109 63.021 16.813 66.89 L 15.121 68.708 C 13.216 70.753 13.216 74.081 15.121 76.126 C 16.073 77.149 17.324 77.66 18.575 77.66 C 19.827 77.66 21.078 77.148 22.03 76.126 L 23.724 74.309 C 27.33 77.212 31.342 79.298 35.67 80.495 C 36.037 80.596 36.41 80.646 36.779 80.646 C 37.747 80.646 38.695 80.301 39.486 79.642 C 40.59 78.725 41.222 77.341 41.222 75.845 C 41.223 73.667 39.837 71.759 37.852 71.206 Z M 20.983 75.002 C 19.656 76.428 17.494 76.428 16.166 75.002 C 14.838 73.576 14.838 71.257 16.166 69.831 L 18.395 67.438 C 19.365 66.398 20.776 66.125 21.986 66.604 C 22.434 66.781 22.854 67.053 23.213 67.438 C 24.541 68.864 24.541 71.184 23.213 72.61 L 22.536 73.336 L 20.983 75.002 Z M 38.581 78.387 C 37.851 78.994 36.925 79.199 36.039 78.955 C 31.95 77.825 28.149 75.873 24.731 73.146 C 24.744 73.127 24.753 73.103 24.767 73.083 C 24.919 72.856 25.054 72.621 25.168 72.376 C 25.184 72.341 25.198 72.306 25.213 72.272 C 25.325 72.017 25.422 71.755 25.494 71.487 C 25.498 71.471 25.5 71.455 25.504 71.44 C 25.575 71.166 25.625 70.888 25.655 70.607 C 25.655 70.592 25.659 70.577 25.66 70.561 C 25.687 70.284 25.688 70.004 25.674 69.726 C 25.671 69.69 25.671 69.655 25.669 69.62 C 25.649 69.352 25.609 69.085 25.552 68.821 C 25.543 68.779 25.534 68.738 25.523 68.696 C 25.46 68.435 25.379 68.18 25.278 67.931 C 25.262 67.893 25.245 67.855 25.228 67.817 C 25.119 67.565 24.994 67.32 24.847 67.086 C 24.83 67.06 24.813 67.037 24.796 67.012 C 24.636 66.768 24.46 66.534 24.257 66.317 C 24.054 66.099 23.837 65.91 23.609 65.739 C 23.586 65.721 23.563 65.701 23.539 65.684 C 23.322 65.525 23.094 65.391 22.859 65.275 C 22.824 65.257 22.789 65.238 22.752 65.222 C 22.52 65.113 22.283 65.026 22.04 64.958 C 22.001 64.948 21.962 64.938 21.922 64.928 C 21.677 64.866 21.43 64.823 21.18 64.802 C 21.146 64.799 21.112 64.799 21.077 64.796 C 20.818 64.781 20.56 64.783 20.303 64.811 C 20.286 64.812 20.27 64.816 20.254 64.819 C 19.995 64.85 19.739 64.903 19.487 64.977 C 19.47 64.983 19.453 64.985 19.436 64.991 C 19.188 65.068 18.946 65.171 18.71 65.291 C 18.676 65.308 18.641 65.323 18.607 65.342 C 18.382 65.463 18.164 65.608 17.954 65.769 C 17.934 65.784 17.913 65.793 17.893 65.809 C 15.354 62.142 13.534 58.062 12.481 53.672 C 12.252 52.72 12.446 51.726 13.011 50.943 C 13.583 50.151 14.447 49.696 15.38 49.696 C 16.735 49.696 17.923 50.694 18.269 52.124 C 18.977 55.056 20.127 57.859 21.688 60.454 L 22.184 61.281 L 28.489 54.513 C 29.565 53.359 31.315 53.359 32.39 54.513 L 36.165 58.565 C 37.24 59.72 37.24 61.598 36.165 62.753 L 30.039 69.327 L 30.875 69.844 C 32.948 71.125 35.17 72.101 37.478 72.743 C 38.81 73.115 39.741 74.389 39.741 75.844 C 39.743 76.846 39.32 77.773 38.581 78.387 Z" style="stroke: none; stroke-width: 12; stroke-dasharray: none; stroke-linecap: butt; stroke-linejoin: miter; stroke-miterlimit: 10; fill: rgb(0, 0, 0); fill-rule: nonzero; opacity: 1;" stroke-linecap="round" transform="matrix(3.3227250576019287, 0, 0, 3.3016560077667236, 3.4517570273453693, 41.5404481154642)"/>
        <path d="M 41.293 1.003 C 40.201 0.094 38.81 -0.216 37.476 0.151 C 33.146 1.349 29.134 3.435 25.53 6.338 L 23.836 4.52 C 21.931 2.476 18.83 2.476 16.926 4.52 C 15.021 6.566 15.021 9.892 16.926 11.938 L 18.619 13.755 C 15.915 17.624 13.972 21.931 12.857 26.578 C 12.514 28.009 12.803 29.502 13.649 30.676 C 14.504 31.86 15.794 32.539 17.188 32.539 C 19.218 32.539 20.994 31.051 21.509 28.92 C 22.044 26.706 22.855 24.556 23.923 22.515 L 28.795 27.745 C 30.447 29.519 33.136 29.519 34.79 27.745 L 38.564 23.693 C 40.217 21.92 40.217 19.033 38.564 17.259 L 33.691 12.029 C 35.592 10.883 37.597 10.013 39.659 9.438 C 41.644 8.886 43.03 6.979 43.03 4.8 C 43.029 3.305 42.396 1.92 41.293 1.003 Z M 17.973 5.643 C 18.637 4.93 19.509 4.575 20.381 4.575 C 21.254 4.575 22.126 4.931 22.789 5.643 L 25.019 8.036 C 25.184 8.213 25.328 8.404 25.451 8.605 C 25.472 8.638 25.485 8.677 25.504 8.711 C 25.603 8.883 25.695 9.059 25.765 9.244 C 25.769 9.254 25.77 9.265 25.774 9.274 C 26.091 10.139 26.091 11.106 25.773 11.969 C 25.77 11.979 25.769 11.989 25.765 11.998 C 25.695 12.183 25.603 12.359 25.504 12.532 C 25.485 12.566 25.472 12.603 25.451 12.637 C 25.327 12.837 25.184 13.029 25.019 13.206 C 24.854 13.384 24.676 13.538 24.489 13.671 C 24.455 13.694 24.416 13.71 24.381 13.733 C 24.223 13.836 24.062 13.934 23.894 14.008 C 23.88 14.013 23.866 14.015 23.853 14.021 C 23.05 14.358 22.153 14.357 21.35 14.016 C 21.343 14.013 21.334 14.011 21.326 14.008 C 21.152 13.933 20.985 13.832 20.822 13.724 C 20.793 13.704 20.76 13.692 20.731 13.671 C 20.544 13.538 20.366 13.384 20.2 13.206 L 17.972 10.814 C 16.645 9.389 16.645 7.069 17.973 5.643 Z M 39.286 7.901 C 36.786 8.598 34.37 9.702 32.106 11.186 L 31.302 11.711 L 37.518 18.383 C 38.593 19.538 38.593 21.416 37.518 22.571 L 33.743 26.622 C 32.667 27.777 30.918 27.777 29.842 26.622 L 23.627 19.95 L 23.137 20.812 C 21.755 23.244 20.726 25.837 20.077 28.521 C 19.732 29.95 18.544 30.95 17.189 30.95 C 16.256 30.95 15.392 30.495 14.819 29.702 C 14.255 28.919 14.062 27.925 14.289 26.974 C 15.344 22.583 17.163 18.503 19.702 14.836 C 19.722 14.851 19.745 14.861 19.765 14.877 C 19.974 15.038 20.19 15.181 20.416 15.303 C 20.452 15.322 20.488 15.338 20.524 15.356 C 20.757 15.474 20.996 15.577 21.242 15.653 C 21.264 15.66 21.287 15.664 21.31 15.67 C 21.552 15.742 21.799 15.793 22.048 15.824 C 22.072 15.827 22.096 15.832 22.12 15.835 C 22.283 15.852 22.446 15.862 22.61 15.862 C 22.696 15.862 22.783 15.854 22.87 15.848 C 22.914 15.846 22.956 15.845 23 15.842 C 23.241 15.821 23.481 15.779 23.719 15.72 C 23.766 15.709 23.814 15.697 23.861 15.684 C 24.096 15.616 24.328 15.531 24.554 15.427 C 24.596 15.408 24.636 15.386 24.679 15.366 C 24.908 15.25 25.131 15.119 25.345 14.964 C 25.373 14.945 25.398 14.922 25.425 14.902 C 25.649 14.731 25.865 14.544 26.066 14.329 C 26.268 14.113 26.445 13.879 26.603 13.636 C 26.62 13.61 26.64 13.585 26.656 13.559 C 26.803 13.326 26.927 13.083 27.035 12.833 C 27.052 12.792 27.071 12.753 27.087 12.713 C 27.187 12.465 27.268 12.213 27.33 11.954 C 27.342 11.91 27.351 11.865 27.361 11.82 C 27.418 11.56 27.458 11.295 27.477 11.029 C 27.481 10.99 27.481 10.952 27.482 10.914 C 27.496 10.638 27.495 10.362 27.469 10.088 C 27.467 10.069 27.464 10.051 27.461 10.032 C 27.433 9.755 27.383 9.481 27.314 9.211 C 27.309 9.193 27.306 9.175 27.301 9.156 C 27.23 8.889 27.133 8.629 27.021 8.376 C 27.005 8.34 26.991 8.303 26.975 8.268 C 26.861 8.025 26.727 7.791 26.576 7.565 C 26.562 7.544 26.553 7.521 26.538 7.5 C 29.955 4.774 33.755 2.821 37.846 1.69 C 38.733 1.443 39.659 1.652 40.388 2.259 C 41.127 2.873 41.55 3.8 41.55 4.801 C 41.549 6.256 40.619 7.531 39.286 7.901 Z" style="stroke: none; stroke-width: 12; stroke-dasharray: none; stroke-linecap: butt; stroke-linejoin: miter; stroke-miterlimit: 10; fill: rgb(0, 0, 0); fill-rule: nonzero; opacity: 1;" stroke-linecap="round" transform="matrix(3.3227250576019287, 0, 0, 3.3016560077667236, 3.4517570273453693, 41.5404481154642)"/>
      </g>
      <text id="label-open-science" class="icon-sublabel icon-sublabel-layer1" style="fill: rgb(241, 232, 232); text-anchor: middle; white-space: pre;" x="644.372" y="194.705" transform="matrix(1, 0, 0, 1, 29.843451, 1.36371)"><tspan x="644.3720092773438" dy="1em">​</tspan>Fostering<tspan x="644.3720092773438" dy="1em">​</tspan>Open Science</text>
    </g>
    <g id="right-layer2-icons" transform="matrix(1, 0, 0, 1, -296.021088, 23.804075)">
      <g id="icon-model" transform="matrix(0.138393, 0, 0, 0.118644, 795.536516, 205.771641)" style="">
        <path d="M 283.039 895.65 C 276.279 887.903 272.021 877.634 270.999 866.215 C 270.028 855.423 265.808 845.256 259.119 837.584 L 246.203 822.78 C 243.612 819.811 239.957 818.191 236.363 818.434 C 234.879 818.521 233.461 818.969 232.114 819.6 L 232.114 742.109 L 232.114 664.617 C 233.461 665.254 234.879 665.697 236.358 665.783 C 240.042 665.983 243.612 664.412 246.203 661.437 L 259.119 646.628 C 265.813 638.956 270.028 628.784 271.046 617.473 C 272.021 606.578 276.279 596.309 283.039 588.567 L 308.951 558.867 C 310.793 556.756 310.793 553.344 308.951 551.233 L 264.894 500.736 C 263.052 498.625 260.075 498.625 258.233 500.736 L 236.184 526.004 C 230.611 532.391 223.635 536.823 216.013 538.826 C 207.888 540.953 198.505 544.042 189.988 553.814 L 152.794 596.444 L 105.204 596.444 L 57.421 596.444 L 20.227 553.814 C 11.706 544.042 2.323 540.953 -5.798 538.826 C -13.424 536.823 -20.4 532.391 -25.973 526.004 L -48.022 500.736 C -49.862 498.625 -52.832 498.625 -54.682 500.736 L -98.732 551.233 C -100.57 553.344 -100.57 556.756 -98.732 558.867 L -72.822 588.567 C -66.062 596.315 -61.802 606.578 -60.782 617.997 C -59.812 628.789 -55.592 638.956 -48.902 646.633 L -35.982 661.443 C -33.382 664.412 -29.762 665.994 -26.142 665.789 C -24.663 665.702 -23.241 665.254 -21.894 664.617 L -21.894 742.109 L -21.894 819.606 C -23.246 818.969 -24.663 818.521 -26.147 818.44 C -29.722 818.202 -33.392 819.816 -35.982 822.786 L -48.902 837.59 C -55.602 845.262 -59.812 855.428 -60.782 866.204 C -60.782 866.21 -60.832 866.739 -60.832 866.744 C -61.812 877.645 -66.072 887.914 -72.822 895.656 L -98.732 925.35 C -99.61 926.365 -100.11 927.731 -100.11 929.167 C -100.11 930.604 -99.61 931.975 -98.732 932.984 L -54.672 983.487 C -53.792 984.497 -52.592 985.067 -51.342 985.067 C -50.092 985.067 -48.892 984.497 -48.012 983.477 L -25.968 958.217 C -20.396 951.822 -13.42 947.394 -5.793 945.391 C 2.328 943.259 11.706 940.171 20.232 930.409 L 57.426 887.779 L 105.016 887.779 L 152.799 887.779 L 189.988 930.409 C 198.509 940.181 207.893 943.264 216.013 945.391 C 223.64 947.394 230.616 951.822 236.184 958.217 L 258.233 983.477 C 259.157 984.537 260.362 985.067 261.568 985.067 C 262.774 985.067 263.98 984.537 264.899 983.477 L 308.956 932.979 C 309.841 931.964 310.336 930.598 310.336 929.162 C 310.336 927.726 309.841 926.354 308.956 925.345 L 283.039 895.65 Z M 196.653 561.448 C 203.408 553.706 210.959 551.228 218.119 549.349 C 227.474 546.898 236.028 541.466 242.854 533.638 L 261.573 512.188 L 298.965 555.05 L 276.383 580.933 C 268.097 590.43 262.878 603.015 261.63 616.895 C 260.885 625.221 257.626 633.076 252.463 638.999 L 239.547 653.803 C 238.822 654.634 237.766 655.039 236.838 655.002 C 235.816 654.942 234.893 654.402 234.234 653.479 C 233.117 651.908 233.381 649.289 234.827 647.632 C 236.669 645.521 236.669 642.109 234.827 639.998 C 232.985 637.887 230.008 637.887 228.166 639.998 L 224.082 644.679 C 224.082 644.679 224.078 644.679 224.078 644.684 L 217.017 652.777 L 205.867 665.557 C 205.518 665.956 205.099 666.204 204.699 666.491 C 204.473 666.653 204.275 666.895 204.035 667.02 C 203.884 667.101 203.724 667.095 203.568 667.16 C 201.689 667.943 199.612 667.711 198.194 666.248 C 197.096 665.114 196.47 663.564 196.432 661.885 C 196.394 660.206 196.941 658.624 197.982 657.436 L 214.478 638.529 C 216.32 636.418 216.32 633.001 214.478 630.895 C 212.636 628.784 209.659 628.784 207.817 630.895 L 191.331 649.797 C 191.331 649.797 191.326 649.802 191.326 649.802 C 191.326 649.802 191.326 649.802 191.326 649.802 L 185.504 656.475 C 183.318 658.975 179.879 659.283 177.826 657.167 C 176.733 656.038 176.106 654.483 176.064 652.804 C 176.026 651.12 176.577 649.543 177.614 648.355 L 180.247 645.337 L 200.342 622.311 C 202.183 620.2 202.183 616.788 200.342 614.676 C 198.5 612.565 195.523 612.565 193.681 614.676 L 173.586 637.703 C 171.523 640.063 168.169 640.073 166.101 637.703 C 165.07 636.521 164.556 634.966 164.556 633.411 C 164.556 631.856 165.07 630.301 166.101 629.119 L 168.353 626.538 L 186.191 606.092 C 188.033 603.981 188.033 600.569 186.191 598.458 C 184.35 596.347 181.373 596.347 179.531 598.458 L 161.692 618.904 C 160.552 620.21 158.951 620.875 157.335 620.68 C 156.388 620.578 154.603 620.086 153.331 617.943 C 151.956 615.627 152.37 612.209 154.466 609.812 L 196.653 561.448 Z M 144.598 607.253 C 144.094 608.451 143.755 609.709 143.5 610.984 C 143.439 611.291 143.387 611.599 143.34 611.907 C 143.152 613.159 143.048 614.423 143.105 615.686 C 143.105 615.719 143.1 615.751 143.105 615.783 C 143.171 617.063 143.411 618.321 143.731 619.557 C 143.811 619.87 143.901 620.167 144 620.475 C 144.391 621.701 144.866 622.899 145.526 624.011 C 147.81 627.866 151.306 630.447 155.244 631.246 C 154.683 636.251 156.077 641.493 159.427 645.327 C 161.527 647.734 164.113 649.262 166.827 649.905 C 166.676 650.947 166.61 652.01 166.634 653.074 C 166.737 657.744 168.475 662.042 171.509 665.173 C 176.04 669.843 182.541 670.594 187.906 667.576 C 188.721 670.102 190.068 672.386 191.882 674.254 C 192.588 674.983 193.342 675.604 194.133 676.144 C 194.402 676.328 194.684 676.441 194.962 676.603 C 195.499 676.916 196.032 677.235 196.597 677.467 C 196.95 677.612 197.313 677.688 197.676 677.801 C 198.18 677.958 198.684 678.131 199.202 678.223 C 199.597 678.293 199.998 678.309 200.398 678.341 C 200.78 678.374 201.157 678.455 201.538 678.455 C 201.642 678.455 201.745 678.422 201.849 678.417 C 202.428 678.401 203.003 678.314 203.582 678.223 C 203.959 678.163 204.331 678.136 204.704 678.044 C 205.316 677.893 205.909 677.656 206.503 677.424 C 206.833 677.294 207.167 677.202 207.487 677.046 C 208.137 676.732 208.759 676.317 209.376 675.896 C 209.621 675.728 209.88 675.604 210.121 675.42 C 210.964 674.773 211.769 674.028 212.518 673.169 L 222.688 661.513 L 222.688 736.71 L 189.757 736.71 C 187.152 736.71 185.047 739.129 185.047 742.109 L 185.047 756.141 C 185.047 768.045 176.596 777.731 166.205 777.731 C 155.818 777.731 147.368 768.045 147.368 756.141 L 147.368 742.109 C 147.368 739.129 145.262 736.71 142.657 736.71 L 109.915 736.71 L 109.915 704.364 L 117.447 704.364 C 133.029 704.364 145.705 689.836 145.705 671.971 C 145.705 654.105 133.029 639.582 117.447 639.582 L 109.915 639.582 L 109.915 607.237 L 144.603 607.237 C 144.598 607.242 144.598 607.247 144.598 607.253 Z M 100.494 607.237 L 100.494 644.981 C 100.494 647.961 102.604 650.38 105.204 650.38 L 117.447 650.38 C 127.833 650.38 136.284 660.066 136.284 671.971 C 136.284 683.881 127.833 693.566 117.447 693.566 L 105.204 693.566 C 102.604 693.566 100.494 695.985 100.494 698.965 L 100.494 736.71 L 72.273 736.71 L 72.273 728.077 C 72.273 710.217 59.598 695.683 44.011 695.683 C 28.424 695.683 15.748 710.212 15.748 728.077 L 15.748 736.71 L -12.473 736.71 L -12.473 661.534 L -2.303 673.191 C -1.559 674.044 -0.758 674.783 0.076 675.426 C 0.373 675.658 0.698 675.809 1.004 676.014 C 1.564 676.387 2.116 676.765 2.7 677.051 C 3.072 677.235 3.463 677.343 3.844 677.488 C 4.391 677.699 4.928 677.92 5.488 678.055 C 5.898 678.158 6.308 678.19 6.722 678.25 C 7.264 678.331 7.806 678.417 8.348 678.433 C 8.461 678.439 8.569 678.471 8.682 678.471 C 9.082 678.471 9.478 678.39 9.878 678.352 C 10.255 678.32 10.627 678.309 11.004 678.239 C 11.546 678.142 12.069 677.969 12.596 677.801 C 12.936 677.693 13.284 677.618 13.614 677.483 C 14.184 677.251 14.73 676.927 15.277 676.608 C 15.545 676.452 15.823 676.338 16.082 676.166 C 16.874 675.626 17.632 675.005 18.338 674.276 C 20.147 672.408 21.495 670.124 22.309 667.597 C 27.689 670.61 34.185 669.865 38.707 665.195 C 41.745 662.063 43.474 657.771 43.582 653.101 C 43.605 652.032 43.54 650.968 43.389 649.926 C 46.102 649.284 48.688 647.756 50.794 645.348 C 50.812 645.327 50.827 645.294 50.845 645.273 C 51.594 644.403 52.235 643.448 52.796 642.438 C 52.96 642.141 53.078 641.823 53.229 641.515 C 53.596 640.754 53.926 639.976 54.18 639.161 C 54.298 638.788 54.383 638.416 54.477 638.038 C 54.67 637.266 54.816 636.483 54.911 635.673 C 54.958 635.252 54.995 634.842 55.019 634.415 C 55.038 634.08 55.104 633.762 55.104 633.422 C 55.104 632.693 55.066 631.969 54.986 631.262 C 55.424 631.176 55.829 630.981 56.258 630.852 C 56.79 630.684 57.332 630.571 57.84 630.339 C 58.175 630.188 58.472 629.956 58.792 629.777 C 59.357 629.464 59.937 629.184 60.46 628.789 C 60.615 628.676 60.742 628.514 60.898 628.39 C 61.552 627.861 62.193 627.316 62.768 626.673 C 63.479 625.879 64.124 624.994 64.694 624.033 C 65.354 622.921 65.825 621.728 66.216 620.507 C 66.315 620.205 66.399 619.903 66.479 619.595 C 66.805 618.359 67.045 617.101 67.106 615.821 C 67.106 615.821 67.106 615.821 67.106 615.821 C 67.167 614.536 67.054 613.24 66.861 611.961 C 66.814 611.642 66.757 611.329 66.691 611.011 C 66.437 609.747 66.098 608.5 65.594 607.296 C 65.589 607.285 65.589 607.269 65.585 607.258 L 100.494 607.258 L 100.494 607.237 Z M -24.009 653.474 C -24.668 654.397 -25.591 654.937 -26.614 654.996 C -27.664 655.072 -28.597 654.634 -29.322 653.803 L -42.242 638.994 C -47.412 633.071 -50.662 625.221 -51.462 616.372 C -52.662 603.015 -57.882 590.424 -66.162 580.933 L -88.742 555.05 L -51.352 512.188 L -32.632 533.638 C -25.803 541.466 -17.249 546.898 -7.899 549.349 C -0.739 551.228 6.812 553.706 13.567 561.448 L 52.136 605.655 L 55.928 610.001 C 57.859 612.215 58.274 615.627 56.898 617.948 C 55.627 620.092 53.846 620.583 52.899 620.686 C 51.265 620.875 49.677 620.216 48.542 618.909 L 30.703 598.463 C 28.862 596.352 25.885 596.352 24.043 598.463 C 22.201 600.574 22.201 603.987 24.043 606.098 L 41.881 626.543 L 44.128 629.124 C 44.642 629.713 45.028 630.398 45.287 631.127 C 45.348 631.295 45.334 631.484 45.377 631.656 C 45.659 632.731 45.664 633.843 45.419 634.928 C 45.362 635.187 45.372 635.463 45.282 635.711 C 45.023 636.44 44.642 637.12 44.128 637.709 C 42.06 640.073 38.707 640.073 36.643 637.709 C 36.643 637.709 36.639 637.703 36.639 637.703 L 16.558 614.682 C 14.716 612.571 11.739 612.571 9.897 614.682 C 8.056 616.793 8.056 620.205 9.897 622.316 L 29.983 645.337 C 29.983 645.337 29.987 645.343 29.987 645.343 L 32.621 648.355 C 33.558 649.43 34.029 650.839 34.1 652.34 C 34.109 652.502 34.175 652.648 34.17 652.81 C 34.133 654.489 33.506 656.038 32.409 657.167 C 30.355 659.288 26.916 658.975 24.735 656.481 L 18.908 649.797 L 2.412 630.89 C 0.571 628.779 -2.406 628.779 -4.248 630.89 C -6.09 633.001 -6.09 636.413 -4.248 638.524 L 12.248 657.431 C 13.284 658.619 13.831 660.201 13.798 661.88 C 13.76 663.559 13.133 665.108 12.036 666.242 C 9.982 668.369 6.543 668.051 4.363 665.557 L -13.848 644.684 C -13.848 644.684 -13.853 644.679 -13.858 644.679 L -17.942 639.998 C -18.86 638.945 -20.066 638.416 -21.272 638.416 C -22.478 638.416 -23.684 638.945 -24.602 639.998 C -26.444 642.109 -26.444 645.521 -24.602 647.632 C -23.156 649.289 -22.892 651.908 -24.009 653.474 Z M 13.567 922.775 C 6.812 930.517 -0.744 932.995 -7.899 934.869 C -17.254 937.32 -25.808 942.757 -32.632 950.58 L -51.352 972.027 L -88.742 929.167 L -66.162 903.29 C -57.882 893.793 -52.662 881.208 -51.462 867.862 C -51.462 867.856 -51.412 867.327 -51.412 867.322 C -50.662 858.991 -47.412 851.141 -42.242 845.219 L -29.322 830.415 C -28.601 829.583 -27.622 829.205 -26.618 829.216 C -25.596 829.275 -24.673 829.815 -24.013 830.738 C -22.897 832.304 -23.161 834.928 -24.607 836.586 C -25.525 837.638 -25.987 839.021 -25.987 840.403 C -25.987 841.785 -25.525 843.167 -24.607 844.22 C -22.765 846.331 -19.788 846.331 -17.946 844.22 L 4.358 818.661 C 6.534 816.167 9.973 815.853 12.031 817.975 C 13.124 819.109 13.75 820.653 13.793 822.338 C 13.831 824.017 13.279 825.599 12.243 826.781 L -4.253 845.694 C -6.095 847.805 -6.095 851.217 -4.253 853.328 C -3.334 854.381 -2.129 854.91 -0.923 854.91 C 0.283 854.91 1.489 854.381 2.408 853.328 L 18.904 834.415 L 24.726 827.742 C 26.907 825.242 30.35 824.94 32.399 827.056 C 33.492 828.19 34.119 829.734 34.161 831.413 C 34.18 832.256 34.053 833.071 33.789 833.827 C 33.525 834.583 33.129 835.274 32.611 835.868 L 30.002 838.859 C 29.997 838.864 29.987 838.875 29.978 838.886 L 9.888 861.912 C 8.046 864.023 8.046 867.435 9.888 869.546 C 10.806 870.599 12.012 871.128 13.218 871.128 C 14.424 871.128 15.63 870.599 16.549 869.546 L 36.639 846.52 C 37.67 845.337 39.027 844.749 40.379 844.749 C 41.735 844.749 43.087 845.337 44.124 846.52 C 44.637 847.108 45.023 847.788 45.278 848.517 C 45.405 848.879 45.41 849.284 45.476 849.673 C 45.631 850.591 45.612 851.514 45.395 852.421 C 45.344 852.642 45.353 852.885 45.278 853.096 C 45.019 853.825 44.632 854.51 44.119 855.099 L 41.872 857.679 C 41.872 857.679 41.872 857.679 41.872 857.679 C 41.872 857.679 41.867 857.685 41.867 857.685 L 24.033 878.125 C 22.192 880.236 22.192 883.649 24.033 885.76 C 24.952 886.812 26.158 887.341 27.364 887.341 C 28.57 887.341 29.776 886.812 30.694 885.76 L 48.528 865.319 C 48.528 865.319 48.533 865.314 48.533 865.314 C 49.673 864.007 51.265 863.397 52.89 863.532 C 53.837 863.64 55.622 864.126 56.889 866.275 C 57.233 866.852 57.464 867.5 57.586 868.186 C 57.949 870.237 57.322 872.608 55.754 874.405 L 52.127 878.568 C 52.127 878.568 52.127 878.568 52.127 878.568 L 13.567 922.775 Z M 65.627 876.954 C 66.131 875.755 66.465 874.503 66.72 873.234 C 66.781 872.921 66.833 872.613 66.88 872.3 C 67.068 871.042 67.172 869.779 67.115 868.515 C 67.115 868.488 67.12 868.456 67.115 868.429 C 67.049 867.149 66.809 865.891 66.489 864.655 C 66.409 864.342 66.319 864.045 66.22 863.737 C 65.829 862.512 65.354 861.313 64.694 860.201 C 62.984 857.307 60.591 855.131 57.84 853.889 C 56.927 853.474 55.97 853.166 54.986 852.966 C 55.066 852.253 55.104 851.535 55.104 850.807 C 55.104 850.472 55.038 850.153 55.019 849.824 C 54.995 849.392 54.962 848.976 54.911 848.55 C 54.816 847.751 54.67 846.973 54.482 846.207 C 54.388 845.823 54.298 845.445 54.18 845.067 C 53.921 844.252 53.596 843.48 53.229 842.719 C 53.083 842.411 52.96 842.093 52.796 841.796 C 52.221 840.759 51.566 839.771 50.789 838.88 C 48.688 836.472 46.102 834.944 43.389 834.296 C 43.54 833.254 43.605 832.191 43.582 831.122 C 43.474 826.452 41.74 822.159 38.707 819.028 C 34.18 814.358 27.675 813.607 22.305 816.626 C 21.49 814.099 20.143 811.815 18.334 809.952 C 12.516 803.954 3.444 804.418 -2.308 811.027 L -12.477 822.683 L -12.477 747.508 L 20.453 747.508 C 23.054 747.508 25.164 745.089 25.164 742.109 L 25.164 728.077 C 25.164 716.167 33.615 706.481 44.006 706.481 C 54.397 706.481 62.848 716.167 62.848 728.077 L 62.848 742.109 C 62.848 745.089 64.958 747.508 67.558 747.508 L 100.305 747.508 L 100.305 779.853 L 92.773 779.853 C 77.191 779.853 64.511 794.382 64.511 812.242 C 64.511 830.107 77.186 844.635 92.773 844.635 L 100.305 844.635 L 100.305 876.981 L 65.617 876.981 C 65.622 876.975 65.622 876.965 65.627 876.954 Z M 109.726 876.981 L 109.726 839.236 C 109.726 836.251 107.616 833.837 105.016 833.837 L 92.773 833.837 C 82.382 833.837 73.931 824.152 73.931 812.242 C 73.931 800.337 82.382 790.651 92.773 790.651 L 105.016 790.651 C 107.616 790.651 109.726 788.238 109.726 785.252 L 109.726 747.508 L 137.947 747.508 L 137.947 756.141 C 137.947 774.001 150.623 788.529 166.205 788.529 C 181.792 788.529 194.468 774.001 194.468 756.141 L 194.468 747.508 L 222.688 747.508 L 222.688 822.689 L 212.523 811.032 C 209.64 807.728 205.933 805.957 202.221 805.768 C 198.509 805.574 194.793 806.956 191.882 809.958 C 190.068 811.826 188.721 814.11 187.906 816.631 C 182.531 813.618 176.031 814.369 171.509 819.033 C 168.471 822.165 166.737 826.462 166.634 831.133 C 166.61 832.202 166.676 833.265 166.827 834.302 C 164.113 834.944 161.527 836.472 159.427 838.886 C 156.916 841.763 155.503 845.429 155.192 849.198 C 155.088 850.45 155.107 851.719 155.248 852.971 C 151.306 853.765 147.81 856.357 145.531 860.206 C 144.871 861.318 144.4 862.512 144.009 863.732 C 143.91 864.034 143.825 864.336 143.745 864.644 C 143.1 867.117 142.978 869.719 143.369 872.289 C 143.416 872.608 143.472 872.915 143.538 873.228 C 143.797 874.508 144.136 875.771 144.65 876.981 C 144.65 876.981 144.65 876.986 144.65 876.986 L 109.726 876.986 L 109.726 876.981 Z M 261.568 972.027 L 242.849 950.58 C 236.028 942.757 227.474 937.32 218.114 934.869 C 210.954 932.99 203.403 930.512 196.649 922.775 L 158.093 878.584 C 158.089 878.579 158.084 878.568 158.079 878.563 L 154.287 874.222 C 152.361 872.008 151.942 868.596 153.317 866.269 C 154.589 864.131 156.369 863.64 157.321 863.532 C 157.966 863.478 158.583 863.629 159.191 863.807 C 159.375 863.861 159.577 863.856 159.756 863.931 C 160.468 864.234 161.127 864.682 161.678 865.308 L 179.517 885.754 C 180.435 886.807 181.641 887.336 182.847 887.336 C 184.053 887.336 185.259 886.807 186.177 885.754 C 188.019 883.643 188.019 880.231 186.177 878.12 L 168.343 857.679 L 167.218 856.384 L 166.097 855.093 C 165.701 854.64 165.446 854.089 165.202 853.549 C 165.126 853.387 164.994 853.258 164.933 853.085 C 164.161 850.893 164.547 848.285 166.092 846.509 C 168.155 844.144 171.514 844.15 173.577 846.509 L 193.672 869.536 C 194.59 870.588 195.796 871.117 197.002 871.117 C 198.208 871.117 199.414 870.588 200.332 869.536 C 202.174 867.425 202.174 864.012 200.332 861.901 L 180.237 838.875 L 177.604 835.857 C 176.568 834.669 176.017 833.087 176.054 831.408 C 176.097 829.723 176.723 828.179 177.816 827.046 C 179.87 824.924 183.318 825.237 185.494 827.731 L 191.316 834.404 L 207.812 853.317 C 208.731 854.37 209.937 854.899 211.143 854.899 C 212.349 854.899 213.555 854.37 214.473 853.317 C 216.315 851.206 216.315 847.794 214.473 845.683 L 197.977 826.77 C 196.936 825.577 196.39 824.001 196.427 822.321 C 196.465 820.642 197.091 819.098 198.189 817.964 C 198.702 817.435 199.301 817.057 199.946 816.825 C 201.213 816.372 202.65 816.507 203.955 817.165 C 203.978 817.176 204.006 817.176 204.035 817.187 C 204.694 817.533 205.321 818.024 205.862 818.645 L 224.073 839.517 L 228.162 844.204 C 230.004 846.315 232.981 846.315 234.822 844.204 C 235.741 843.151 236.202 841.769 236.202 840.386 C 236.202 839.004 235.741 837.622 234.822 836.569 C 233.376 834.912 233.112 832.288 234.229 830.722 C 234.888 829.799 235.812 829.259 236.834 829.2 C 237.846 829.194 238.822 829.567 239.542 830.398 L 252.458 845.202 C 257.626 851.125 260.881 858.975 261.672 867.824 C 262.873 881.187 268.092 893.772 276.378 903.263 L 298.96 929.14 L 261.568 972.027 Z" style="stroke-width: 12; stroke-dasharray: none; stroke-linecap: butt; stroke-linejoin: miter; stroke-miterlimit: 10; fill-rule: nonzero; opacity: 1;" stroke-linecap="round"/>
      </g>
      <text id="label-model" class="icon-sublabel icon-sublabel-layer2" style="fill: rgb(229, 238, 234); text-anchor: middle; white-space: pre;" x="830" y="335" transform="matrix(1, 0, 0, 1.181973, -18.680269, -61.135063)">Collaborative Model <tspan x="830" dy="1em">​</tspan>Development</text>
      <g id="icon-pipeline" transform="matrix(0.222537, 0, 0, 0.224408, 926.373799, 276.561316)" style="">
        <rect x="-193.19" y="46.121" width="48" height="48" rx="8" fill="none" stroke="#ffffffff" stroke-linecap="round" stroke-linejoin="round" stroke-width="10" style="stroke-width: 12;"/>
        <rect x="-57.191" y="-17.879" width="64" height="64" rx="8" fill="none" stroke="#ffffffff" stroke-linecap="round" stroke-linejoin="round" stroke-width="10" style="stroke-width: 12;"/>
        <rect x="-57.191" y="94.121" width="64" height="64" rx="8" fill="none" stroke="#ffffffff" stroke-linecap="round" stroke-linejoin="round" stroke-width="10" style="stroke-width: 12;"/>
        <line x1="-145.19" y1="70.121" x2="-97.191" y2="70.121" fill="none" stroke="#ffffffff" stroke-linecap="round" stroke-linejoin="round" stroke-width="10" style="stroke-width: 12;"/>
        <path d="M -57.191 126.121 L -81.191 126.121 C -90.027 126.121 -97.191 118.958 -97.191 110.121 L -97.191 30.121 C -97.191 21.285 -90.027 14.121 -81.191 14.121 L -57.191 14.121" fill="none" stroke="#ffffffff" stroke-linecap="round" stroke-linejoin="round" stroke-width="10" style="stroke-width: 12;"/>
      </g>
      <text id="label-gear" class="icon-sublabel icon-sublabel-layer2" style="fill: rgb(229, 238, 234); text-anchor: middle; white-space: pre;" x="908" y="335" transform="matrix(1, 0, 0, 1.121315, 0, -41.063915)">Automated Data <tspan x="908" dy="1em">​</tspan>Pipelines</text>
    </g>
    <g id="right-layer3-icons" transform="matrix(1, 0, 0, 1, -323.893127, 69.482719)">
      <g id="icon-barchart" transform="matrix(0.183288, 0, 0, 0.178344, 802.208374, 407.239899)" style="">
        <polyline points="42.621 107.546 42.621 35.546 90.621 35.546" fill="none" stroke="#ffffffff" stroke-linecap="round" stroke-linejoin="round" stroke-width="12" style="stroke-width: 12;"/>
        <line x1="218.621" y1="107.546" x2="26.621" y2="107.546" fill="none" stroke="#ffffffff" stroke-linecap="round" stroke-linejoin="round" stroke-width="12" style="stroke-width: 12;"/>
        <polyline points="90.621 107.546 90.621 -12.454 146.621 -12.454" fill="none" stroke="#ffffffff" stroke-linecap="round" stroke-linejoin="round" stroke-width="12" style="stroke-width: 12;"/>
        <polyline points="146.621 107.546 146.621 -60.454 202.621 -60.454 202.621 107.546" fill="none" stroke="#ffffffff" stroke-linecap="round" stroke-linejoin="round" stroke-width="12" style="stroke-width: 12;"/>
      </g>
      <text id="label-barchart" class="icon-sublabel icon-sublabel-layer3" style="fill: rgb(229, 238, 234); text-anchor: middle; white-space: pre;" x="825" y="443">Data <tspan x="825" dy="1em">​</tspan>Visualisation</text>
      <g id="icon-map" transform="matrix(0.164106, 0, 0, 0.169623, 894.281311, 404.185577)" style="">
        <circle cx="-3.091" cy="44.46" r="96" fill="none" stroke="#ffffffff" stroke-linecap="round" stroke-linejoin="round" stroke-width="12" style="stroke-width: 12;"/>
        <polygon points="44.909 -3.54 -19.091 28.46 -51.091 92.46 12.909 60.46 44.909 -3.54" fill="none" stroke="#ffffffff" stroke-linecap="round" stroke-linejoin="round" stroke-width="12" style="stroke-width: 12;"/>
      </g>
      <text id="label-map" class="icon-sublabel icon-sublabel-layer3" style="fill: rgb(229, 238, 234); text-anchor: middle; white-space: pre;" x="900" y="443" transform="matrix(1, 0, 0, 1, -4.988808, 0.554312)">Decision Support<tspan x="900" dy="1em">​</tspan> Platforms</text>
    </g>
  </g>
</svg>