<svg width="849" height="1206" xmlns="http://www.w3.org/2000/svg" xmlns:xlink="http://www.w3.org/1999/xlink" xml:space="preserve" overflow="hidden"><defs><clipPath id="clip0"><rect x="1495" y="602" width="849" height="1206"/></clipPath></defs><g clip-path="url(#clip0)" transform="translate(-1495 -602)"><path d="M2158 818.5C2158 938.07 2051.44 1035 1920 1035 1788.56 1035 1682 938.07 1682 818.5 1682 698.93 1788.56 602 1920 602 2051.44 602 2158 698.93 2158 818.5Z" fill="#D9D9D9" fill-rule="evenodd"/><path d="M2344 1421.5C2344 1634.96 2153.94 1808 1919.5 1808 1685.06 1808 1495 1634.96 1495 1421.5 1495 1208.04 1685.06 1035 1919.5 1035 2153.94 1035 2344 1208.04 2344 1421.5Z" fill="#D9D9D9" fill-rule="evenodd"/></g></svg>